<svg xmlns="http://www.w3.org/2000/svg" viewBox="0 0 1200 400" role="img" aria-labelledby="title desc">
<title id="title">QISWAH.id — Umrah Haji</title>
<desc id="desc">Logo QISWAH dengan ikon C, rumah dan aksen emas, tulisan QISWAH, serta lingkaran hijau .id.</desc>
<defs>
  <linearGradient id="teal" x1="0" y1="0" x2="1" y2="1"><stop stop-color="#12c6d8"/><stop offset="1" stop-color="#08798a"/></linearGradient>
  <linearGradient id="gold" x1="0" y1="0" x2="1" y2="1"><stop stop-color="#f4cf67"/><stop offset="1" stop-color="#b98219"/></linearGradient>
  <linearGradient id="green" x1="0" y1="0" x2="1" y2="1"><stop stop-color="#a6e83d"/><stop offset="1" stop-color="#55a51e"/></linearGradient>
</defs>
<g transform="translate(35 30)">
  <path d="M250 45c-54-47-137-54-195-2C-3 88-16 169 17 235c31 61 90 96 157 93 62-3 108-34 133-84" fill="none" stroke="url(#teal)" stroke-width="34" stroke-linecap="round"/>
  <path d="M88 142 179 92l82 47-82 47z" fill="url(#teal)"/>
  <path d="M179 92v183l-82-43V139z" fill="#0aa2b4" opacity=".9"/>
  <path d="M179 139 261 92v183l-82 43z" fill="#f7fbfb"/>
  <path d="M180 142 225 166v86l-45 26z" fill="url(#gold)"/>
  <path d="M225 252c31 15 58 11 83-10" fill="none" stroke="url(#gold)" stroke-width="17" stroke-linecap="round"/>
  <circle cx="309" cy="235" r="19" fill="#e8b83e"/>
  <circle cx="235" cy="103" r="9" fill="#fff"/>
</g>
<text x="370" y="205" font-family="Georgia, 'Times New Roman', serif" font-size="118" font-weight="700" letter-spacing="3" fill="#0a2035">QISWAH</text>
<circle cx="1082" cy="157" r="75" fill="url(#green)" stroke="#fff" stroke-width="7"/>
<text x="1082" y="181" text-anchor="middle" font-family="Arial, sans-serif" font-size="74" font-weight="800" fill="#fff">.id</text>
<path d="M520 262h82M728 262h82" stroke="#c99a32" stroke-width="6" stroke-linecap="round"/>
<text x="675" y="300" text-anchor="middle" font-family="Arial, sans-serif" font-size="30" font-weight="800" letter-spacing="9" fill="#087b8a">UMRAH · HAJI</text>
</svg>